<svg xmlns="http://www.w3.org/2000/svg">
  <symbol id="arrow-up-right" viewBox="0 0 24 24">
    <path d="M7 17 17 7M9 7h8v8" fill="none" stroke="currentColor" stroke-width="2" stroke-linecap="round" stroke-linejoin="round" />
  </symbol>
  <symbol id="briefcase" viewBox="0 0 24 24">
    <path d="M10 6h4M8 6a2 2 0 0 1 2-2h4a2 2 0 0 1 2 2m-12 5h16M5 8h14a2 2 0 0 1 2 2v7a3 3 0 0 1-3 3H6a3 3 0 0 1-3-3v-7a2 2 0 0 1 2-2Z" fill="none" stroke="currentColor" stroke-width="2" stroke-linecap="round" stroke-linejoin="round" />
  </symbol>
  <symbol id="code" viewBox="0 0 24 24">
    <path d="m9 18-6-6 6-6m6 12 6-6-6-6" fill="none" stroke="currentColor" stroke-width="2" stroke-linecap="round" stroke-linejoin="round" />
  </symbol>
  <symbol id="compass" viewBox="0 0 24 24">
    <path d="M12 21a9 9 0 1 0 0-18 9 9 0 0 0 0 18Zm3.5-12.5-2.2 4.8-4.8 2.2 2.2-4.8 4.8-2.2Z" fill="none" stroke="currentColor" stroke-width="2" stroke-linecap="round" stroke-linejoin="round" />
  </symbol>
  <symbol id="github" viewBox="0 0 24 24">
    <path d="M12 2a10 10 0 0 0-3.2 19.5c.5.1.7-.2.7-.5v-1.8c-2.8.6-3.4-1.2-3.4-1.2-.5-1.1-1.1-1.4-1.1-1.4-.9-.6.1-.6.1-.6 1 0 1.5 1 1.5 1 .9 1.5 2.3 1.1 2.9.9.1-.7.4-1.1.7-1.3-2.2-.3-4.6-1.1-4.6-5 0-1.1.4-2 1-2.7-.1-.3-.4-1.3.1-2.7 0 0 .8-.3 2.8 1a9.8 9.8 0 0 1 5 0c1.9-1.3 2.8-1 2.8-1 .5 1.4.2 2.4.1 2.7.6.7 1 1.6 1 2.7 0 3.9-2.4 4.7-4.6 5 .4.3.7 1 .7 2V21c0 .3.2.6.7.5A10 10 0 0 0 12 2Z" fill="currentColor" />
  </symbol>
</svg>
